<svg width="79" height="17" viewBox="0 0 79 17" fill="none" xmlns="http://www.w3.org/2000/svg">
<path d="M8.70302 16.697H2.31639V9.92298H0V7.45576H2.31639V0.681731H8.70302C13.5895 0.681731 16.9648 3.81986 16.9648 8.68937C16.9648 13.5589 13.5895 16.697 8.70302 16.697ZM9.1332 9.92298H6.15498V13.3641H8.70302C11.0746 13.3641 13.1262 11.7518 13.1262 8.68937C13.1262 5.62699 10.9753 4.01464 8.70302 4.01464H6.15498V7.45576H9.1332V9.92298Z" fill="#FFB74D"/>
<path d="M18.2554 2.03437C18.2554 0.898154 19.1709 0 20.3291 0C21.4763 0 22.4028 0.898154 22.4028 2.03437C22.4028 3.15977 21.4763 4.06875 20.3291 4.06875C19.1709 4.06875 18.2554 3.15977 18.2554 2.03437ZM18.5091 16.697V5.44303H22.1491V16.697H18.5091Z" fill="#FFB74D"/>
<path d="M27.5982 12.9854V16.697H23.9581V0.681731H27.5982V8.37556L30.5874 5.44303H35.2753L30.6536 9.97709L35.5842 16.697H31.3375L28.2269 12.3686L27.5982 12.9854Z" fill="#FFB74D"/>
<path d="M41.4855 17C38.2094 17 36.3343 15.2253 36.3343 13.0611C36.3343 10.8969 38.7168 9.30618 42.0039 9.30618C42.765 9.30618 43.4379 9.40357 44.0225 9.60917C44.0225 8.73266 43.5151 8.21324 42.0039 8.21324C39.5882 8.21324 38.5073 8.99236 38.5073 8.99236L36.8527 6.2979C36.8527 6.2979 38.9044 5.04265 42.0039 5.04265C45.1696 5.04265 47.6625 6.14641 47.6625 9.9338V12.888C47.6625 13.5372 48.0486 14.1216 48.8207 14.1216L48.0045 17C46.736 16.9026 45.7763 16.4373 45.1145 15.8854C44.2762 16.578 43.0518 17 41.4855 17ZM44.0225 12.9745C44.0225 12.3902 43.2503 12.1197 42.0039 12.1197C40.7464 12.1197 39.9743 12.3902 39.9743 12.9745C39.9743 13.5481 40.7464 13.8294 42.0039 13.8294C43.1952 13.8294 44.0225 13.5481 44.0225 12.9745Z" fill="#FFB74D"/>
<path d="M49.9348 2.03437C49.9348 0.898154 50.8503 0 52.0085 0C53.1557 0 54.0822 0.898154 54.0822 2.03437C54.0822 3.15977 53.1557 4.06875 52.0085 4.06875C50.8503 4.06875 49.9348 3.15977 49.9348 2.03437ZM50.1885 16.697V5.44303H53.8285V16.697H50.1885Z" fill="#FFB74D"/>
<path d="M55.3728 11.07C55.3728 7.61808 57.8877 5.14004 61.3513 5.14004C64.8038 5.14004 67.3188 7.61808 67.3188 11.07C67.3188 14.522 64.8038 17 61.3513 17C57.8877 17 55.3728 14.522 55.3728 11.07ZM59.0128 11.07C59.0128 12.6391 59.7408 13.8294 61.3513 13.8294C62.9617 13.8294 63.6787 12.704 63.6787 11.07C63.6787 9.43603 62.9617 8.31063 61.3513 8.31063C59.7408 8.31063 59.0128 9.43603 59.0128 11.07Z" fill="#FFB74D"/>
<path d="M73.7826 5.14004C76.7498 5.14004 78.272 6.57925 78.7684 8.2457L75.2938 9.21961C75.2386 8.83005 74.9408 8.31063 73.7826 8.31063C72.8891 8.31063 72.6023 8.5487 72.6023 8.87333C72.6023 9.19796 72.9663 9.44685 73.7826 9.61999C76.9042 10.2801 79 10.7346 79 13.2451C79 15.7664 76.7387 17 73.7826 17C71.1573 17 69.1277 15.7339 68.6093 13.8511L72.1391 12.8663C72.1942 13.3533 72.6795 13.8294 73.7826 13.8294C74.8856 13.8294 75.3599 13.6779 75.3599 13.2451C75.3599 12.8122 74.5878 12.6174 73.7826 12.4551C70.7713 11.8275 68.9623 10.9943 68.9623 8.87333C68.9623 6.76321 70.8044 5.14004 73.7826 5.14004Z" fill="#FFB74D"/>
</svg>
